<svg width="19" height="19" viewBox="0 0 19 19" fill="none" xmlns="http://www.w3.org/2000/svg">
<g clip-path="url(#clip0_2056_12383)">
<path d="M12.9707 0.474121H6.2207C4.72886 0.474121 3.29812 1.06675 2.24323 2.12165C1.18834 3.17654 0.595703 4.60728 0.595703 6.09912L0.595703 12.8491C0.595703 14.341 1.18834 15.7717 2.24323 16.8266C3.29812 17.8815 4.72886 18.4741 6.2207 18.4741H12.9707C14.4625 18.4741 15.8933 17.8815 16.9482 16.8266C18.0031 15.7717 18.5957 14.341 18.5957 12.8491V6.09912C18.5957 4.60728 18.0031 3.17654 16.9482 2.12165C15.8933 1.06675 14.4625 0.474121 12.9707 0.474121V0.474121ZM16.9082 12.8491C16.9082 15.0204 15.142 16.7866 12.9707 16.7866H6.2207C4.04945 16.7866 2.2832 15.0204 2.2832 12.8491V6.09912C2.2832 3.92787 4.04945 2.16162 6.2207 2.16162H12.9707C15.142 2.16162 16.9082 3.92787 16.9082 6.09912V12.8491Z" fill="url(#paint0_linear_2056_12383)"/>
<path d="M9.5957 4.97412C8.40223 4.97412 7.25764 5.44823 6.41372 6.29214C5.56981 7.13605 5.0957 8.28065 5.0957 9.47412C5.0957 10.6676 5.56981 11.8122 6.41372 12.6561C7.25764 13.5 8.40223 13.9741 9.5957 13.9741C10.7892 13.9741 11.9338 13.5 12.7777 12.6561C13.6216 11.8122 14.0957 10.6676 14.0957 9.47412C14.0957 8.28065 13.6216 7.13605 12.7777 6.29214C11.9338 5.44823 10.7892 4.97412 9.5957 4.97412ZM9.5957 12.2866C8.85006 12.2857 8.1352 11.9891 7.60795 11.4619C7.0807 10.9346 6.7841 10.2198 6.7832 9.47412C6.7832 7.92275 8.04545 6.66162 9.5957 6.66162C11.146 6.66162 12.4082 7.92275 12.4082 9.47412C12.4082 11.0244 11.146 12.2866 9.5957 12.2866Z" fill="url(#paint1_linear_2056_12383)"/>
<path d="M14.4336 5.23636C14.7648 5.23636 15.0332 4.9679 15.0332 4.63673C15.0332 4.30557 14.7648 4.03711 14.4336 4.03711C14.1024 4.03711 13.834 4.30557 13.834 4.63673C13.834 4.9679 14.1024 5.23636 14.4336 5.23636Z" fill="url(#paint2_linear_2056_12383)"/>
</g>
<defs>
<linearGradient id="paint0_linear_2056_12383" x1="2.24327" y1="16.8266" x2="16.9481" y2="2.12168" gradientUnits="userSpaceOnUse">
<stop stop-color="#FFC107"/>
<stop offset="0.5074" stop-color="#F44336"/>
<stop offset="0.9901" stop-color="#9C27B0"/>
</linearGradient>
<linearGradient id="paint1_linear_2056_12383" x1="6.41375" y1="12.6561" x2="12.7777" y2="6.29217" gradientUnits="userSpaceOnUse">
<stop stop-color="#FFC107"/>
<stop offset="0.5074" stop-color="#F44336"/>
<stop offset="0.9901" stop-color="#9C27B0"/>
</linearGradient>
<linearGradient id="paint2_linear_2056_12383" x1="14.0094" y1="5.06097" x2="14.8578" y2="4.2125" gradientUnits="userSpaceOnUse">
<stop stop-color="#FFC107"/>
<stop offset="0.5074" stop-color="#F44336"/>
<stop offset="0.9901" stop-color="#9C27B0"/>
</linearGradient>
<clipPath id="clip0_2056_12383">
<rect width="18" height="18" fill="white" transform="translate(0.595703 0.474121)"/>
</clipPath>
</defs>
</svg>
