<svg width="19" height="21" viewBox="0 0 19 21" fill="none" xmlns="http://www.w3.org/2000/svg">
<g clip-path="url(#clip0_2056_12389)">
<path d="M0.595703 6.8374H4.62095V20.1726H0.595703V6.8374Z" fill="#1976D2"/>
<path d="M15.5852 6.99379C15.5425 6.97924 15.502 6.96348 15.457 6.95015C15.4029 6.93697 15.3485 6.92565 15.2938 6.9162C15.0561 6.86384 14.8142 6.83744 14.5716 6.8374C12.2248 6.8374 10.7365 8.67644 10.246 9.38684V6.8374H6.2207V20.1726H10.246V12.8988C10.246 12.8988 13.288 8.33337 14.5716 11.6866V20.1726H18.5957V11.1738C18.594 10.2162 18.2976 9.28634 17.7527 8.52989C17.2079 7.77343 16.4456 7.23317 15.5852 6.99379Z" fill="#1976D2"/>
<path d="M2.56445 5.01889C3.65176 5.01889 4.5332 4.06906 4.5332 2.89738C4.5332 1.72571 3.65176 0.775879 2.56445 0.775879C1.47714 0.775879 0.595703 1.72571 0.595703 2.89738C0.595703 4.06906 1.47714 5.01889 2.56445 5.01889Z" fill="#1976D2"/>
</g>
<defs>
<clipPath id="clip0_2056_12389">
<rect width="18" height="19.3966" fill="white" transform="translate(0.595703 0.775879)"/>
</clipPath>
</defs>
</svg>
