<svg width="19" height="21" viewBox="0 0 19 21" fill="none" xmlns="http://www.w3.org/2000/svg">
<g clip-path="url(#clip0_2056_12387)">
<path d="M18.5957 5.06623C17.9186 5.38446 17.2025 5.59595 16.4695 5.6942C17.242 5.20035 17.8195 4.41834 18.0928 3.49632C17.3695 3.95861 16.5781 4.28416 15.7528 4.45888C15.2469 3.87671 14.5901 3.47198 13.8679 3.29726C13.1457 3.12254 12.3914 3.18591 11.703 3.47914C11.0147 3.77236 10.4241 4.2819 10.0079 4.94153C9.5918 5.60117 9.36938 6.38042 9.36958 7.17804C9.36958 7.49324 9.39433 7.79631 9.45508 8.08483C7.98704 8.00727 6.55073 7.5967 5.24004 6.87996C3.92935 6.16322 2.77381 5.15645 1.84895 3.92547C1.37512 4.80057 1.22864 5.83738 1.43932 6.82478C1.65001 7.81219 2.20202 8.67593 2.98295 9.24014C2.39881 9.22326 1.82699 9.05529 1.3157 8.75038V8.79402C1.31668 9.71224 1.6112 10.6021 2.14969 11.3137C2.68817 12.0254 3.43773 12.5154 4.2722 12.7012C3.95651 12.7909 3.63116 12.8349 3.3047 12.8322C3.07024 12.8366 2.83601 12.8139 2.60608 12.7643C2.84451 13.5535 3.30413 14.2437 3.92165 14.7398C4.53916 15.2358 5.28421 15.5134 6.0542 15.5343C4.74801 16.6351 3.13705 17.2323 1.47883 17.2303C1.1762 17.2303 0.885953 17.2158 0.595703 17.1758C2.28307 18.3475 4.24934 18.9673 6.2567 18.9603C13.0472 18.9603 16.7597 12.8988 16.7597 7.64477C16.7597 7.46899 16.7541 7.29927 16.7462 7.13076C17.474 6.56945 18.1008 5.86984 18.5957 5.06623Z" fill="#03A9F4"/>
</g>
<defs>
<clipPath id="clip0_2056_12387">
<rect width="18" height="19.3966" fill="white" transform="translate(0.595703 0.775879)"/>
</clipPath>
</defs>
</svg>
