<svg width="25" height="25" viewBox="0 0 25 25" fill="none" xmlns="http://www.w3.org/2000/svg">
<path opacity="0.99" fill-rule="evenodd" clip-rule="evenodd" d="M10.6149 24.6759L18.9683 22.926C20.8197 22.5391 22.4418 21.4319 23.4777 19.848C24.5136 18.2641 24.8784 16.3333 24.4919 14.4802L22.7458 6.11962C22.5541 5.20204 22.1838 4.33123 21.6559 3.55691C21.1279 2.7826 20.4528 2.11995 19.669 1.6068C18.8852 1.09364 18.0081 0.740034 17.0877 0.566169C16.1674 0.392304 15.2218 0.401585 14.305 0.593482L5.95168 2.34112C5.0349 2.53294 4.16484 2.90362 3.3912 3.432C2.61756 3.96038 1.95547 4.63611 1.44276 5.42059C0.930052 6.20508 0.576752 7.08296 0.403037 8.00411C0.229322 8.92526 0.238596 9.87164 0.430327 10.7892L2.17645 19.1498C2.56355 21.0024 3.66998 22.6254 5.25243 23.6617C6.83487 24.698 8.76377 25.0628 10.6149 24.6759ZM14.1486 1.3094C14.4399 1.25913 14.7343 1.22836 15.0297 1.2173C15.9349 1.18966 16.836 1.34796 17.6777 1.68242C18.6715 2.08063 19.5723 2.68035 20.3233 3.44387C20.985 4.09837 21.5049 4.88215 21.8509 5.74643C21.9452 5.98886 22.0258 6.23639 22.0925 6.48785C22.1626 6.75379 22.2171 7.02459 22.2716 7.29584C22.2921 7.398 22.3126 7.50023 22.334 7.60228C22.4981 8.38054 22.6607 9.15881 22.8217 9.93708C23.0579 11.0745 23.2957 12.2105 23.5349 13.3449C23.5947 13.6373 23.6568 13.932 23.719 14.2267C23.7286 14.2744 23.7383 14.3219 23.7481 14.3694C23.7898 14.5722 23.8313 14.7745 23.8593 14.9797C24.0697 16.4934 23.7457 18.0332 22.9431 19.3333C22.1405 20.6335 20.9096 21.6125 19.4629 22.1015C19.2145 22.1844 18.706 22.3064 18.706 22.3064L11.6157 23.7916C11.5332 23.8085 11.4507 23.826 11.3681 23.8435C11.1698 23.8856 10.9712 23.9278 10.7714 23.962C9.58408 24.171 8.36216 24.0483 7.24002 23.6073C6.24762 23.2077 5.34789 22.6081 4.59667 21.8459C3.9347 21.1872 3.41479 20.3996 3.0691 19.5318C2.97378 19.2898 2.89311 19.0422 2.82754 18.7904C2.75025 18.4975 2.69062 18.1988 2.631 17.9C2.61608 17.8253 2.60117 17.7506 2.58598 17.676C2.42648 16.9084 2.2662 16.1409 2.10516 15.3734L1.38739 11.9357C1.32527 11.6341 1.26315 11.3324 1.19874 11.0308C1.19166 10.996 1.18454 10.9613 1.17743 10.9266C1.13365 10.7131 1.09007 10.5007 1.05841 10.2848C1.01238 9.95681 0.991616 9.62581 0.996294 9.29467C1.01689 7.82212 1.53144 6.39924 2.45728 5.25462C3.38312 4.11 4.6665 3.31008 6.10124 2.98336C6.24083 2.95112 6.38041 2.92298 6.51999 2.89483C6.58976 2.88076 6.65952 2.86669 6.72929 2.85211L7.85427 2.62186L11.289 1.90346L13.2537 1.49361C13.3391 1.47572 13.4244 1.45727 13.5099 1.43879C13.7216 1.39303 13.9339 1.34712 14.1486 1.3094ZM18.4139 2.19128C17.5597 1.80245 16.6306 1.60595 15.6923 1.61564C15.552 1.61564 15.4254 1.62255 15.2897 1.63176C15.0688 1.64788 14.8503 1.6755 14.6317 1.71235C14.4316 1.74718 14.2328 1.78992 14.0343 1.8326C13.9704 1.84634 13.9065 1.86007 13.8426 1.87353L12.0758 2.24424L8.46852 2.99947L7.26993 3.24815C7.19325 3.26427 7.11657 3.27987 7.03989 3.29548C6.88651 3.32669 6.73314 3.35791 6.57976 3.39322C5.24365 3.69829 4.03676 4.415 3.12891 5.44249C2.10293 6.61997 1.52814 8.1239 1.50702 9.6861C1.50433 10.0142 1.52586 10.3421 1.57144 10.667C1.60229 10.8914 1.64785 11.1121 1.69332 11.3324C1.69871 11.3585 1.7041 11.3846 1.70946 11.4107C1.74167 11.5615 1.7733 11.7118 1.80494 11.862C1.83657 12.0123 1.86821 12.1625 1.90041 12.3133C2.14274 13.4815 2.38583 14.6481 2.62969 15.8132C2.78306 16.5562 2.93643 17.2999 3.0898 18.0444C3.10785 18.1317 3.12542 18.2193 3.14302 18.307C3.19272 18.5548 3.2426 18.8034 3.30376 19.0483C3.36539 19.2976 3.44222 19.5429 3.53382 19.7828C3.86032 20.6721 4.38602 21.4747 5.07059 22.1291C5.49559 22.522 5.9821 22.8425 6.51075 23.0778C7.48802 23.5206 8.56032 23.7121 9.63031 23.635C9.851 23.6209 10.0707 23.594 10.2883 23.5544C10.4972 23.5196 10.7028 23.4749 10.9093 23.4301C10.9484 23.4216 10.9875 23.4132 11.0267 23.4047L12.5428 23.0893C13.2431 22.9419 14.2135 22.7407 15.1542 22.5457C16.7569 22.2134 18.2736 21.8989 18.2229 21.8989C19.5963 21.4775 20.7811 20.9548 21.7497 19.8657C22.802 18.6858 23.3956 17.1666 23.4222 15.5853C23.4257 15.2564 23.4049 14.9278 23.3601 14.6021C23.3283 14.3687 23.2789 14.1373 23.2299 13.9078C23.2258 13.8882 23.2216 13.8687 23.2174 13.8491C23.1834 13.6891 23.1501 13.5284 23.1168 13.3673C23.0892 13.2341 23.0615 13.1007 23.0334 12.9672L22.3087 9.49729C22.1461 8.74052 21.9882 7.98297 21.8348 7.22467C21.8106 7.11163 21.7876 6.99807 21.7645 6.88442C21.7193 6.6624 21.6741 6.44007 21.6208 6.22075C21.5582 5.97099 21.4813 5.72498 21.3908 5.48393C21.0623 4.59507 20.536 3.79271 19.8517 3.13763C19.4272 2.74576 18.9415 2.42609 18.4139 2.19128Z" fill="#14466F"/>
<path d="M11.3959 5.27447C10.4302 5.35717 9.49026 5.62943 8.62968 6.07572C7.7691 6.522 7.00478 7.13357 6.38035 7.8755C5.75591 8.61742 5.2836 9.47519 4.99038 10.3998C4.69716 11.3244 4.58877 12.2978 4.6714 13.2643C4.83828 15.2164 5.77308 17.0221 7.27018 18.2843C8.01147 18.9092 8.86848 19.382 9.7923 19.6754C10.7161 19.9689 11.6886 20.0774 12.6544 19.9947C13.093 19.9622 13.5293 19.9038 13.9611 19.8197C14.7939 19.6862 20.2876 18.4681 20.2876 18.4681C20.2876 18.4681 18.8797 16.6514 19.1534 14.8439L19.2754 13.9229C19.3799 13.2869 19.4176 12.6418 19.3881 11.9979C19.2179 10.0461 18.2806 8.24167 16.7821 6.98101C15.2835 5.72036 13.3463 5.10657 11.3959 5.27447Z" fill="white"/>
<path d="M5.91172 13.5797C5.8307 13.5964 5.75378 13.629 5.68543 13.6756C5.61708 13.7222 5.55865 13.782 5.51351 13.8514C5.46836 13.9207 5.43741 13.9984 5.42244 14.0798C5.40747 14.1612 5.40878 14.2448 5.42629 14.3257C5.54763 14.8326 5.73562 15.3212 5.98534 15.7786C6.64657 17.0528 7.69336 18.0852 8.97607 18.7282C9.98859 19.2096 11.0902 19.4746 12.2107 19.5065C12.2997 19.5138 12.3892 19.5032 12.474 19.4751C12.5588 19.4471 12.6371 19.4022 12.7042 19.3432C12.7713 19.2842 12.8259 19.2123 12.8646 19.1318C12.9033 19.0512 12.9254 18.9637 12.9296 18.8744C12.9337 18.7851 12.9199 18.6959 12.8889 18.6121C12.8578 18.5283 12.8102 18.4516 12.7489 18.3866C12.6876 18.3216 12.6139 18.2696 12.5321 18.2337C12.4503 18.1979 12.3621 18.1789 12.2728 18.1779C10.6049 18.1042 9.02898 17.5769 7.8833 16.3059C7.49712 15.8749 7.18044 15.3863 6.94467 14.8576C6.86692 14.6857 6.79857 14.5097 6.73992 14.3303C6.72152 14.2751 6.70541 14.2175 6.68931 14.1622L6.6709 14.0909C6.66991 14.0817 6.66991 14.0724 6.6709 14.0632C6.65379 13.981 6.6204 13.9031 6.57271 13.8341C6.52503 13.765 6.464 13.7062 6.39324 13.6611C6.32248 13.6161 6.24342 13.5856 6.16071 13.5717C6.07801 13.5577 5.99335 13.5604 5.91172 13.5797Z" fill="#14466F"/>
<path opacity="0.99" d="M5.2334 12.8522C5.23295 12.7464 5.26383 12.6429 5.32214 12.5548C5.38044 12.4666 5.46354 12.3978 5.56092 12.357C5.6583 12.3162 5.76556 12.3053 5.86913 12.3257C5.9727 12.346 6.06792 12.3967 6.14271 12.4713C6.2175 12.5459 6.2685 12.6411 6.28926 12.7448C6.31001 12.8485 6.29959 12.956 6.25931 13.0538C6.21903 13.1515 6.15069 13.2351 6.06297 13.2939C5.97525 13.3527 5.87208 13.3841 5.76654 13.3841C5.62554 13.3841 5.49028 13.3281 5.39037 13.2284C5.29045 13.1287 5.23401 12.9935 5.2334 12.8522Z" fill="#14466F"/>
<path opacity="0.99" d="M5.37012 11.8C5.37012 11.7312 5.39047 11.664 5.4286 11.6068C5.46673 11.5496 5.52092 11.5051 5.58433 11.4787C5.64773 11.4524 5.7175 11.4455 5.78481 11.459C5.85212 11.4724 5.91395 11.5055 5.96248 11.5541C6.01101 11.6027 6.04406 11.6647 6.05745 11.7321C6.07084 11.7996 6.06396 11.8695 6.0377 11.933C6.01144 11.9965 5.96696 12.0508 5.9099 12.089C5.85283 12.1273 5.78575 12.1477 5.71712 12.1477C5.62527 12.147 5.53736 12.1102 5.47241 12.0451C5.40747 11.9801 5.37072 11.892 5.37012 11.8Z" fill="#14466F"/>
<path opacity="0.99" d="M5.50879 11.0217C5.50879 10.9762 5.52229 10.9316 5.54759 10.8938C5.57289 10.8559 5.60885 10.8264 5.65093 10.809C5.693 10.7915 5.7393 10.787 5.78397 10.7959C5.82863 10.8048 5.86965 10.8267 5.90186 10.8589C5.93406 10.8911 5.95599 10.9321 5.96487 10.9768C5.97376 11.0214 5.9692 11.0677 5.95177 11.1098C5.93434 11.1519 5.90483 11.1878 5.86697 11.2132C5.8291 11.2385 5.78458 11.252 5.73904 11.252C5.67798 11.252 5.61941 11.2277 5.57623 11.1845C5.53304 11.1413 5.50879 11.0828 5.50879 11.0217Z" fill="#FBAA43"/>
</svg>
