<svg width="131" height="31" viewBox="0 0 131 31" fill="none" xmlns="http://www.w3.org/2000/svg">
<path d="M45.0891 7.86444V9.37603C45.0891 9.59079 45.052 9.80142 44.9776 10.0079C44.9115 10.2144 44.8166 10.4085 44.6927 10.5903L36.2179 22.6953H44.8166V25.9167H30.8901V24.306C30.8901 24.1161 30.9232 23.9302 30.9893 23.7485C31.0553 23.5585 31.1462 23.385 31.2618 23.2281L39.7614 11.0859H31.584V7.86444H45.0891ZM50.599 13.0683V21.2209C50.599 21.8569 50.7436 22.3484 51.0327 22.6953C51.3218 23.0423 51.7472 23.2157 52.3089 23.2157C52.7301 23.2157 53.1225 23.129 53.4859 22.9555C53.8576 22.7821 54.2169 22.5384 54.5638 22.2245V13.0683H58.4048V25.9167H56.0259C55.5468 25.9167 55.2329 25.702 55.0842 25.2725L54.8488 24.5291C54.601 24.7686 54.345 24.9875 54.0806 25.1857C53.8163 25.3757 53.5313 25.5409 53.2257 25.6813C52.9284 25.8135 52.6062 25.9167 52.2593 25.9911C51.9124 26.0737 51.5324 26.115 51.1194 26.115C50.4173 26.115 49.7937 25.9952 49.2485 25.7557C48.7116 25.5079 48.2573 25.1651 47.8856 24.7273C47.5139 24.2895 47.2331 23.7733 47.0431 23.1785C46.8531 22.5838 46.7581 21.9313 46.7581 21.2209V13.0683H50.599ZM61.3803 25.9167V13.0683H63.6601C63.8501 13.0683 64.007 13.0848 64.1309 13.1178C64.2631 13.1509 64.3704 13.2046 64.453 13.2789C64.5439 13.345 64.61 13.4358 64.6513 13.5515C64.7008 13.6671 64.7421 13.8075 64.7752 13.9727L64.9858 15.1746C65.4566 14.4477 65.9853 13.8736 66.5717 13.4524C67.1582 13.0311 67.7984 12.8205 68.4922 12.8205C69.0787 12.8205 69.5495 12.9609 69.9047 13.2417L69.4091 16.0667C69.376 16.2401 69.3099 16.364 69.2108 16.4384C69.1117 16.5044 68.9795 16.5375 68.8143 16.5375C68.6739 16.5375 68.5087 16.521 68.3187 16.4879C68.1288 16.4466 67.8892 16.426 67.6001 16.426C66.5924 16.426 65.7994 16.9629 65.2212 18.0367V25.9167H61.3803ZM75.5814 13.0683V25.9167H71.7405V13.0683H75.5814ZM76.0275 9.54949C76.0275 9.85511 75.9655 10.1442 75.8416 10.4168C75.7177 10.6811 75.5484 10.9165 75.3336 11.123C75.1189 11.3213 74.8669 11.4823 74.5778 11.6062C74.297 11.7219 73.9955 11.7797 73.6734 11.7797C73.3595 11.7797 73.0663 11.7219 72.7937 11.6062C72.5211 11.4823 72.2774 11.3213 72.0627 11.123C71.8562 10.9165 71.691 10.6811 71.5671 10.4168C71.4514 10.1442 71.3936 9.85511 71.3936 9.54949C71.3936 9.23561 71.4514 8.94238 71.5671 8.66979C71.691 8.39721 71.8562 8.15767 72.0627 7.95117C72.2774 7.74467 72.5211 7.5836 72.7937 7.46796C73.0663 7.35232 73.3595 7.2945 73.6734 7.2945C73.9955 7.2945 74.297 7.35232 74.5778 7.46796C74.8669 7.5836 75.1189 7.74467 75.3336 7.95117C75.5484 8.15767 75.7177 8.39721 75.8416 8.66979C75.9655 8.94238 76.0275 9.23561 76.0275 9.54949ZM90.8127 21.2457C90.9118 21.2457 91.0109 21.2663 91.11 21.3076C91.2092 21.3407 91.3042 21.4026 91.395 21.4935L93.0553 23.2405C92.3284 24.1904 91.4157 24.909 90.3171 25.3964C89.2268 25.8754 87.9341 26.115 86.439 26.115C85.0678 26.115 83.8371 25.8837 82.7468 25.4211C81.6647 24.9503 80.7437 24.306 79.9838 23.4883C79.2321 22.6623 78.6539 21.6876 78.2492 20.5642C77.8444 19.4326 77.6421 18.206 77.6421 16.8844C77.6421 15.538 77.8733 14.3031 78.3359 13.1798C78.7985 12.0481 79.4427 11.0735 80.2687 10.2557C81.103 9.43798 82.0983 8.80196 83.2548 8.34765C84.4112 7.89335 85.6873 7.6662 87.0833 7.6662C87.7606 7.6662 88.3966 7.72815 88.9913 7.85205C89.5943 7.96769 90.156 8.13289 90.6764 8.34765C91.1968 8.55415 91.6759 8.80609 92.1136 9.10345C92.5514 9.39255 92.9396 9.71469 93.2783 10.0699L91.8658 11.9655C91.775 12.0812 91.6676 12.1886 91.5437 12.2877C91.4198 12.3786 91.2463 12.424 91.0233 12.424C90.8746 12.424 90.7342 12.3909 90.6021 12.3249C90.4699 12.2588 90.3295 12.1803 90.1808 12.0894C90.0321 11.9903 89.8669 11.8871 89.6852 11.7797C89.5117 11.6641 89.3011 11.5608 89.0533 11.4699C88.8138 11.3708 88.5288 11.2882 88.1984 11.2221C87.8762 11.1561 87.4963 11.123 87.0585 11.123C86.2986 11.123 85.6047 11.2593 84.977 11.5319C84.3492 11.7962 83.8082 12.1803 83.3539 12.6842C82.9078 13.1798 82.5568 13.7828 82.3007 14.4931C82.0529 15.2035 81.929 16.0006 81.929 16.8844C81.929 17.8095 82.0529 18.6314 82.3007 19.35C82.5568 20.0686 82.8996 20.6758 83.3291 21.1714C83.7669 21.6587 84.2749 22.0304 84.8531 22.2865C85.4313 22.5425 86.0508 22.6706 86.7116 22.6706C87.0915 22.6706 87.4385 22.654 87.7523 22.621C88.0662 22.5797 88.3553 22.5136 88.6196 22.4228C88.8922 22.3319 89.1483 22.2163 89.3878 22.0758C89.6356 21.9272 89.8834 21.7454 90.1312 21.5307C90.2303 21.4481 90.3377 21.382 90.4534 21.3324C90.569 21.2746 90.6888 21.2457 90.8127 21.2457ZM94.969 25.9167V7.36884H98.8099V14.1958C99.2724 13.7993 99.7722 13.4813 100.309 13.2417C100.854 12.9939 101.503 12.87 102.254 12.87C102.956 12.87 103.576 12.9939 104.113 13.2417C104.658 13.4813 105.116 13.8199 105.488 14.2577C105.86 14.6872 106.141 15.2035 106.331 15.8065C106.521 16.4012 106.616 17.0496 106.616 17.7517V25.9167H102.775V17.7517C102.775 17.1239 102.63 16.6366 102.341 16.2897C102.052 15.9345 101.627 15.7569 101.065 15.7569C100.644 15.7569 100.247 15.8478 99.8754 16.0295C99.5037 16.2112 99.1485 16.4549 98.8099 16.7605V25.9167H94.969ZM118.215 25.9167C117.851 25.9167 117.574 25.8672 117.385 25.7681C117.203 25.6689 117.05 25.4624 116.926 25.1486L116.653 24.4423C116.331 24.7149 116.022 24.9545 115.724 25.161C115.427 25.3675 115.117 25.545 114.795 25.6937C114.481 25.8341 114.142 25.9374 113.779 26.0035C113.424 26.0778 113.027 26.115 112.59 26.115C112.003 26.115 111.47 26.0406 110.991 25.892C110.512 25.735 110.103 25.5079 109.765 25.2105C109.434 24.9132 109.178 24.5456 108.996 24.1078C108.815 23.6618 108.724 23.1496 108.724 22.5714C108.724 22.1171 108.839 21.6504 109.071 21.1714C109.302 20.6923 109.703 20.2586 110.273 19.8704C110.843 19.4739 111.611 19.1435 112.577 18.8792C113.544 18.6149 114.762 18.4662 116.232 18.4332V17.888C116.232 17.1363 116.075 16.5953 115.761 16.2649C115.456 15.9262 115.018 15.7569 114.448 15.7569C113.994 15.7569 113.622 15.8065 113.333 15.9056C113.044 16.0047 112.784 16.1162 112.552 16.2401C112.329 16.364 112.11 16.4755 111.896 16.5746C111.681 16.6738 111.425 16.7233 111.128 16.7233C110.863 16.7233 110.636 16.6614 110.446 16.5375C110.264 16.4053 110.12 16.2442 110.012 16.0543L109.319 14.8524C110.095 14.1668 110.954 13.6589 111.896 13.3285C112.846 12.9898 113.862 12.8205 114.944 12.8205C115.72 12.8205 116.418 12.9485 117.038 13.2046C117.665 13.4524 118.194 13.8034 118.624 14.2577C119.061 14.7038 119.396 15.2365 119.627 15.856C119.858 16.4755 119.974 17.1529 119.974 17.888V25.9167H118.215ZM113.804 23.575C114.299 23.575 114.733 23.4883 115.105 23.3148C115.476 23.1414 115.852 22.8605 116.232 22.4723V20.6881C115.464 20.7212 114.832 20.7873 114.337 20.8864C113.841 20.9855 113.449 21.1094 113.159 21.2581C112.87 21.4068 112.668 21.5761 112.552 21.7661C112.445 21.9561 112.391 22.1626 112.391 22.3856C112.391 22.8234 112.511 23.1331 112.751 23.3148C112.99 23.4883 113.341 23.575 113.804 23.575ZM127.211 26.115C126.6 26.115 126.059 26.0283 125.588 25.8548C125.126 25.6731 124.733 25.4211 124.411 25.099C124.097 24.7686 123.858 24.3721 123.693 23.9096C123.527 23.447 123.445 22.9307 123.445 22.3608V15.7197H122.354C122.156 15.7197 121.987 15.6578 121.846 15.5339C121.706 15.4017 121.636 15.2117 121.636 14.9639V13.4647L123.68 13.0683L124.436 9.93358C124.535 9.5371 124.816 9.33886 125.279 9.33886H127.286V13.093H130.408V15.7197H127.286V22.1006C127.286 22.398 127.356 22.6458 127.496 22.844C127.645 23.034 127.856 23.129 128.128 23.129C128.269 23.129 128.384 23.1166 128.475 23.0918C128.574 23.0588 128.657 23.0257 128.723 22.9927C128.797 22.9514 128.863 22.9184 128.921 22.8936C128.987 22.8605 129.062 22.844 129.144 22.844C129.26 22.844 129.351 22.8729 129.417 22.9307C129.491 22.9803 129.565 23.0629 129.64 23.1785L130.804 24.9999C130.309 25.3716 129.751 25.6524 129.132 25.8424C128.512 26.0241 127.872 26.115 127.211 26.115Z" fill="white"/>
<path opacity="0.99" fill-rule="evenodd" clip-rule="evenodd" d="M10.5014 29.6756L18.763 27.9257C20.5941 27.5388 22.1984 26.4316 23.2229 24.8477C24.2474 23.2638 24.6082 21.333 24.226 19.4799L22.499 11.1193C22.3095 10.2017 21.9432 9.33092 21.4211 8.55661C20.8989 7.78229 20.2312 7.11964 19.456 6.60649C18.6808 6.09334 17.8133 5.73973 16.9031 5.56586C15.9928 5.392 15.0577 5.40128 14.151 5.59318L5.88937 7.34082C4.98266 7.53264 4.12216 7.90332 3.35702 8.4317C2.59187 8.96008 1.93706 9.6358 1.42998 10.4203C0.922904 11.2048 0.573484 12.0827 0.401678 13.0038C0.229871 13.925 0.239043 14.8713 0.428668 15.7889L2.15561 24.1495C2.53846 26.0021 3.63273 27.625 5.1978 28.6614C6.76286 29.6977 8.67057 30.0625 10.5014 29.6756ZM13.9987 6.3093C14.2869 6.25903 14.578 6.22826 14.8702 6.2172C15.7653 6.18956 16.6566 6.34786 17.489 6.68232C18.4719 7.08053 19.3628 7.68025 20.1056 8.44377C20.76 9.09827 21.2742 9.88205 21.6164 10.7463C21.7097 10.9888 21.7894 11.2363 21.8553 11.4878C21.9247 11.7537 21.9785 12.0245 22.0324 12.2957C22.0527 12.3979 22.0731 12.5001 22.0942 12.6022C22.2565 13.3804 22.4173 14.1587 22.5766 14.937C22.8102 16.0744 23.0453 17.2104 23.2819 18.3448C23.3411 18.6372 23.4025 18.9319 23.4639 19.2266C23.4734 19.2743 23.4831 19.3218 23.4928 19.3693C23.534 19.5722 23.5751 19.7744 23.6027 19.9796C23.8109 21.4933 23.4904 23.0331 22.6966 24.3332C21.9028 25.6334 20.6855 26.6124 19.2546 27.1014C19.0089 27.1843 18.5061 27.3063 18.5061 27.3063L11.4936 28.7914C11.412 28.8084 11.3304 28.8259 11.2488 28.8434C11.0526 28.8855 10.8562 28.9277 10.6586 28.9618C9.48433 29.1709 8.27583 29.0482 7.16601 28.6072C6.18452 28.2076 5.29467 27.608 4.55171 26.8458C3.897 26.1871 3.3828 25.3995 3.04091 24.5317C2.94663 24.2897 2.86686 24.0421 2.802 23.7903C2.72556 23.4974 2.66659 23.1987 2.60762 22.8999C2.59287 22.8252 2.57812 22.7505 2.5631 22.6759C2.40535 21.9083 2.24683 21.1408 2.08756 20.3733L1.37767 16.9356C1.31624 16.634 1.2548 16.3323 1.19109 16.0307C1.1841 15.9959 1.17705 15.9612 1.17002 15.9265C1.12672 15.713 1.08362 15.5006 1.0523 15.2847C1.00678 14.9567 0.986246 14.6257 0.990873 14.2946C1.01125 12.822 1.52014 11.3991 2.43581 10.2545C3.35148 9.1099 4.62076 8.30998 6.03975 7.98326C6.1778 7.95102 6.31585 7.92287 6.45389 7.89473C6.5229 7.88066 6.5919 7.86659 6.6609 7.85201L7.77352 7.62176L11.1705 6.90336L13.1136 6.49351C13.1981 6.47562 13.2825 6.45717 13.367 6.43869C13.5764 6.39293 13.7864 6.34702 13.9987 6.3093ZM18.2171 7.19118C17.3723 6.80235 16.4535 6.60585 15.5254 6.61554C15.3866 6.61554 15.2615 6.62245 15.1273 6.63166C14.9088 6.64778 14.6927 6.6754 14.4765 6.71224C14.2786 6.74708 14.082 6.78982 13.8857 6.83249C13.8225 6.84623 13.7593 6.85997 13.6961 6.87343L11.9487 7.24413L8.38102 7.99937L7.19559 8.24805C7.11976 8.26417 7.04392 8.27977 6.96809 8.29538C6.81639 8.32659 6.6647 8.35781 6.51301 8.39311C5.19158 8.69819 3.99794 9.4149 3.10007 10.4424C2.08536 11.6199 1.51688 13.1238 1.49599 14.686C1.49333 15.0141 1.51463 15.342 1.5597 15.6669C1.59021 15.8913 1.63527 16.112 1.68024 16.3323C1.68557 16.3584 1.6909 16.3845 1.69621 16.4106C1.72806 16.5614 1.75935 16.7117 1.79063 16.8619C1.82192 17.0122 1.85321 17.1624 1.88506 17.3132C2.12473 18.4814 2.36514 19.648 2.60633 20.8131C2.75801 21.5561 2.9097 22.2998 3.06138 23.0443C3.07923 23.1316 3.09661 23.2192 3.11402 23.3069C3.16317 23.5547 3.2125 23.8033 3.27299 24.0482C3.33395 24.2975 3.40993 24.5428 3.50052 24.7827C3.82344 25.672 4.34337 26.4746 5.02041 27.129C5.44075 27.5219 5.92192 27.8424 6.44475 28.0777C7.41129 28.5205 8.47181 28.712 9.53005 28.6349C9.74832 28.6208 9.96559 28.5939 10.1808 28.5543C10.3874 28.5194 10.5908 28.4748 10.795 28.43C10.8337 28.4215 10.8724 28.4131 10.9111 28.4046L12.4106 28.0892C13.1032 27.9418 14.0628 27.7407 14.9932 27.5456C16.5783 27.2133 18.0784 26.8988 18.0283 26.8988C19.3866 26.4774 20.5584 25.9547 21.5163 24.8656C22.5571 23.6857 23.1441 22.1665 23.1704 20.5852C23.1739 20.2563 23.1534 19.9277 23.109 19.602C23.0775 19.3686 23.0287 19.1371 22.9803 18.9077C22.9762 18.8881 22.972 18.8685 22.9679 18.849C22.9343 18.689 22.9014 18.5282 22.8684 18.3672C22.8411 18.234 22.8137 18.1006 22.7859 17.9671L22.0692 14.4972C21.9084 13.7404 21.7522 12.9829 21.6005 12.2246C21.5766 12.1115 21.5538 11.998 21.5309 11.8843C21.4863 11.6623 21.4415 11.44 21.3889 11.2207C21.3269 10.9709 21.2509 10.7249 21.1613 10.4838C20.8365 9.59497 20.3159 8.7926 19.6392 8.13753C19.2194 7.74566 18.739 7.42599 18.2171 7.19118Z" fill="white"/>
<path d="M11.273 10.2742C10.3179 10.3569 9.3882 10.6291 8.53708 11.0754C7.68595 11.5217 6.93002 12.1333 6.31245 12.8752C5.69488 13.6171 5.22776 14.4749 4.93776 15.3995C4.64775 16.3241 4.54056 17.2975 4.62228 18.264C4.78732 20.2161 5.71186 22.0218 7.19251 23.284C7.92565 23.9089 8.77325 24.3817 9.68692 24.6751C10.6006 24.9686 11.5624 25.0771 12.5175 24.9944C12.9514 24.9619 13.3829 24.9035 13.8099 24.8194C14.6336 24.6859 20.067 23.4678 20.067 23.4678C20.067 23.4678 18.6745 21.6511 18.9452 19.8436L19.0658 18.9226C19.1692 18.2866 19.2065 17.6415 19.1773 16.9976C19.009 15.0458 18.082 13.2414 16.5999 11.9807C15.1178 10.7201 13.2019 10.1063 11.273 10.2742Z" fill="#14466F"/>
<path opacity="0.99" d="M5.84959 18.5796C5.76946 18.5963 5.69339 18.6289 5.62579 18.6755C5.55819 18.7221 5.5004 18.7819 5.45575 18.8512C5.41111 18.9206 5.38049 18.9982 5.36569 19.0797C5.35088 19.1611 5.35218 19.2447 5.3695 19.3256C5.48951 19.8325 5.67543 20.3211 5.9224 20.7785C6.57637 22.0527 7.61166 23.0851 8.88028 23.7281C9.88168 24.2095 10.9712 24.4745 12.0793 24.5063C12.1674 24.5137 12.256 24.5031 12.3398 24.475C12.4237 24.447 12.5011 24.4021 12.5675 24.3431C12.6338 24.2841 12.6878 24.2122 12.7261 24.1316C12.7644 24.0511 12.7862 23.9636 12.7904 23.8743C12.7945 23.785 12.7808 23.6958 12.7501 23.612C12.7194 23.5281 12.6723 23.4514 12.6117 23.3864C12.5511 23.3214 12.4781 23.2695 12.3972 23.2336C12.3163 23.1978 12.2291 23.1788 12.1408 23.1778C10.4912 23.1041 8.93261 22.5768 7.79952 21.3058C7.41758 20.8748 7.10437 20.3861 6.87119 19.8575C6.7943 19.6856 6.7267 19.5096 6.6687 19.3302C6.65049 19.2749 6.63457 19.2174 6.61864 19.1621L6.60043 19.0907C6.59945 19.0816 6.59945 19.0723 6.60043 19.0631C6.58351 18.9809 6.55049 18.903 6.50333 18.8339C6.45616 18.7649 6.39581 18.7061 6.32582 18.661C6.25584 18.616 6.17765 18.5855 6.09585 18.5715C6.01406 18.5575 5.93032 18.5603 5.84959 18.5796Z" fill="#3D78AB"/>
<path opacity="0.99" d="M5.17969 17.8521C5.17924 17.7463 5.20982 17.6428 5.26755 17.5546C5.32528 17.4665 5.40756 17.3977 5.50397 17.3569C5.60039 17.3161 5.70659 17.3052 5.80914 17.3255C5.91169 17.3459 6.00596 17.3966 6.08001 17.4712C6.15406 17.5458 6.20456 17.641 6.22511 17.7447C6.24567 17.8484 6.23535 17.9559 6.19546 18.0536C6.15558 18.1514 6.08792 18.2349 6.00106 18.2937C5.91421 18.3525 5.81206 18.3839 5.70756 18.3839C5.56796 18.3839 5.43403 18.328 5.33511 18.2283C5.23618 18.1286 5.18029 17.9933 5.17969 17.8521Z" fill="#3D78AB"/>
<path opacity="0.99" d="M5.3125 16.7996C5.3125 16.7308 5.33265 16.6636 5.3704 16.6064C5.40815 16.5493 5.46181 16.5047 5.52459 16.4784C5.58737 16.4521 5.65645 16.4452 5.7231 16.4586C5.78974 16.472 5.85096 16.5051 5.89901 16.5537C5.94706 16.6024 5.97978 16.6643 5.99304 16.7318C6.0063 16.7992 5.99949 16.8691 5.97349 16.9326C5.94748 16.9962 5.90345 17.0505 5.84695 17.0887C5.79045 17.1269 5.72402 17.1473 5.65607 17.1473C5.56514 17.1467 5.47809 17.1099 5.41379 17.0448C5.34948 16.9797 5.3131 16.8916 5.3125 16.7996Z" fill="#3D78AB"/>
<path opacity="0.99" d="M5.45312 16.0215C5.45312 15.976 5.46649 15.9314 5.49154 15.8936C5.51659 15.8557 5.5522 15.8262 5.59386 15.8088C5.63552 15.7914 5.68136 15.7868 5.72558 15.7957C5.76981 15.8046 5.81043 15.8265 5.84231 15.8587C5.87419 15.8909 5.89591 15.9319 5.9047 15.9766C5.9135 16.0212 5.90898 16.0676 5.89173 16.1096C5.87447 16.1517 5.84526 16.1877 5.80777 16.213C5.77027 16.2383 5.7262 16.2518 5.68111 16.2518C5.62064 16.2518 5.56265 16.2275 5.5199 16.1843C5.47714 16.1411 5.45312 16.0826 5.45312 16.0215Z" fill="#FBAA43"/>
</svg>
